<?xml version="1.0" encoding="UTF-8" standalone="no"?>
<svg
   viewBox="0 0 140 120"
   version="1.1"
   id="svg8"
   sodipodi:docname="avaudiologo.svg"
   inkscape:version="1.1.2 (0a00cf5339, 2022-02-04)"
   xmlns:inkscape="http://www.inkscape.org/namespaces/inkscape"
   xmlns:sodipodi="http://sodipodi.sourceforge.net/DTD/sodipodi-0.dtd"
   xmlns="http://www.w3.org/2000/svg"
   xmlns:svg="http://www.w3.org/2000/svg">
  <defs
     id="defs12" />
  <sodipodi:namedview
     id="namedview10"
     pagecolor="#ffffff"
     bordercolor="#666666"
     borderopacity="1.0"
     inkscape:pageshadow="2"
     inkscape:pageopacity="0.0"
     inkscape:pagecheckerboard="0"
     showgrid="false"
     inkscape:zoom="3.6375"
     inkscape:cx="76.838488"
     inkscape:cy="35.32646"
     inkscape:window-width="1559"
     inkscape:window-height="1082"
     inkscape:window-x="26"
     inkscape:window-y="23"
     inkscape:window-maximized="0"
     inkscape:current-layer="svg8" />
  <path
     d="m 102.35063,9.0769278 c -2.36642,0 -4.271495,1.5319342 -4.271495,3.4348262 v 65.489708 c -5.234762,-1.766464 -11.780293,-1.150191 -17.386347,1.636888 -9.133001,4.5432 -13.086167,13.38862 -8.826658,19.750252 4.252946,6.361468 15.101369,7.833418 24.227425,3.287228 6.602755,-3.290311 10.736565,-9.004575 10.511885,-14.530851 5.9e-4,-0.02063 0.017,-0.04125 0.017,-0.06874 V 32.26037 c 1.02839,-0.456829 2.62605,0.528277 3.47062,0.992871 9.59748,4.669161 17.97661,12.417583 18.571,21.964105 0.51418,5.522326 -0.9242,11.014853 -2.90329,16.261695 C 134.58366,59.8065 134.1092,43.566833 123.20792,32.904401 116.17574,27.005845 109.5447,20.128094 106.6221,12.136016 106.40903,11.376921 105.11975,9.0768935 102.35058,9.0768935 Z M 16.920609,15.946574 c -2.366423,0 -4.271496,1.531932 -4.271496,3.434823 0,1.902894 1.905073,3.434826 4.271496,3.434826 h 51.258005 c 2.366424,0 4.271518,-1.531932 4.271518,-3.434826 0,-1.902891 -1.905094,-3.434823 -4.271518,-3.434823 z m 0,20.60894 c -2.366423,0 -4.271496,1.53193 -4.271496,3.434807 0,1.902919 1.905073,3.434835 4.271496,3.434835 h 51.258005 c 2.366424,0 4.271518,-1.531916 4.271518,-3.434835 0,-1.902877 -1.905094,-3.434807 -4.271518,-3.434807 z m 0,20.608951 c -2.366423,0 -4.271496,1.531918 -4.271496,3.4348 0,1.902885 1.905073,3.434838 4.271496,3.434838 h 51.258005 c 2.366424,0 4.271518,-1.531953 4.271518,-3.434838 0,-1.902882 -1.905094,-3.4348 -4.271518,-3.4348 z m 0,20.608911 c -2.366423,0 -4.271496,1.531953 -4.271496,3.434837 0,1.902884 1.905073,3.434837 4.271496,3.434837 h 25.629002 c 2.366425,0 4.271497,-1.531953 4.271497,-3.434837 0,-1.902884 -1.905072,-3.434837 -4.271497,-3.434837 z"
     fill="#1e8bcd"
     id="path6"
     style="fill:#495057;fill-opacity:1;stroke-width:1.91646" />
</svg>
